# xmcd CD database file
#
# Track frame offsets:
#	150
#	71690
#	103770
#	113327
#	153242
#	189932
#	212017
#	235670
#
# Disc length: 3603 seconds
#
# Revision: 1
# Processed by: cddbd v1.5.1PL2 Copyright (c) Steve Scherf et al.
# Submitted via: CDex 1.51
#
DISCID=5d0e1108
DTITLE=Wu Zhao,qin - Autumn Moon over the Han Palace
DYEAR=2002
DGENRE=
TTITLE0=漢宮秋月 Autumn Moon over the Han Palace
TTITLE1=憶故人 Memories of an Old Friend
TTITLE2=關山月 Moon over the Guanshan Mountain
TTITLE3=普庵咒 Buddhist Chant
TTITLE4=梅花三弄 Three Variations of the Plum Blossom
TTITLE5=陽關三疊Parting at the Yang-guan Gate
TTITLE6=鷗鷺忘機 Innocent Seagulls
TTITLE7=漁樵問答 Dialogue between the Fisherman and the Woodcutter
EXTD=YEAR: 2002
EXTT0=
EXTT1=
EXTT2=
EXTT3=
EXTT4=
EXTT5=
EXTT6=
EXTT7=
PLAYORDER=
